<?xml version="1.0" encoding="utf-8"?>
<svg xmlns="http://www.w3.org/2000/svg" viewBox="23.814 29.503 440.414 432.072" width="440.414px" height="432.072px">
  <path style="fill: #4f46e5;" d="M 138.578 396.191 L 171.626 428.883 L 204.674 461.575 L 413.077 253.381 L 375.98 216.199 L 356.006 235.664 L 373.01 253.137 L 203.435 422.991 L 174.397 392.32 C 216.115 350.602 136.731 260.761 89.612 307.88 L 64.306 282.338 L 233.972 114.555 L 292.428 170.677 L 371.956 91.32 L 340.307 59.559 L 435.819 59.057 L 435.566 154.6 L 397.794 116.653 L 257.863 255.175 L 210.641 207.989 L 177.691 239.813 L 247.375 307.416 L 399.601 155.58 L 463.527 217.926 L 464.228 29.503 L 272.048 29.926 L 333.158 90.733 L 292.841 129.517 L 234.358 71.3 L 23.814 282.566 L 86.932 346.339 C 109.065 324.206 131.586 327.061 143.769 340.253 C 155.952 353.445 157.798 376.975 138.581 396.192" transform="matrix(1, 0, 0, 1, 0, 2.842170943040401e-14)"/>
</svg>
